<svg width="22.487" height="18.438" fill="none" stroke="currentColor" stroke-width="2" stroke-linecap="round" stroke-linejoin="round" class="feather feather-twitter" xmlns="http://www.w3.org/2000/svg"><path d="M22.244.261a10.9 10.9 0 0 1-3.14 1.53 4.48 4.48 0 0 0-7.86 3v1a10.66 10.66 0 0 1-9-4.53s-4 9 5 13a11.64 11.64 0 0 1-7 2c9 5 20 0 20-11.5a4.5 4.5 0 0 0-.08-.83 7.72 7.72 0 0 0 2.08-3.67z" style="fill:#dde0f6;fill-opacity:1;stroke:#acafc0;stroke-width:.487559;stroke-miterlimit:4;stroke-dasharray:none;stroke-opacity:1"/><g style="stroke:#acafc0;stroke-width:0;stroke-miterlimit:4;stroke-dasharray:none;stroke-opacity:1" stroke="none"><path style="fill:#a491f0;stroke:#acafc0;stroke-width:0;stroke-miterlimit:4;stroke-dasharray:none;stroke-opacity:1" d="M136.565 79.884c0-.642-3.084-2.1-6.604-4.239-6.437-3.91-6.905.15-6.638-10.804.132-5.404 2.66-1.683 8.247 6.254 3.397 4.826 5.197 8.225 4.872 8.55-.325.325.123.881.123.24z" transform="matrix(.10324 0 0 .10324 .877 .616)"/><path style="fill:#836fd8;stroke:#acafc0;stroke-width:0;stroke-miterlimit:4;stroke-dasharray:none;stroke-opacity:1" d="M106.583 86.514c-2.77-4.29 4.805-6.784 8.088-9.486 4.91-4.043 7.993-7.219 9.664-6.324 1.118.598 4.615 3.786 4.615 4.238 0 .453-4.253 2.342-8.653 4.178-4.4 1.837-10.932 11.701-13.714 7.394z" transform="matrix(.10324 0 0 .10324 .877 .616)"/><path style="fill:#7a64d5;stroke:#acafc0;stroke-width:0;stroke-miterlimit:4;stroke-dasharray:none;stroke-opacity:1" d="M110.492 96.357c-3.933-6.127-5.242-10.182-3.836-11.876 1.734-1.527 3.783-2.594 5.205-3.568.17.38 4.384-1.435 8.392-2.75l8.522-3.648 3.628 2.222a475.005 475.005 0 0 1 3.949 2.432c.176.116.007 2.569-.375 5.45-.5 3.773-1.391 5.59-2.658 5.703-.967.086-10.762 5.242-10.762 5.242l-10.57 3.121z" transform="matrix(.10324 0 0 .10324 .877 .616)"/><path style="fill:#6c55cc;stroke:#acafc0;stroke-width:0;stroke-miterlimit:4;stroke-dasharray:none;stroke-opacity:1" d="M115.12 106.03c-2.422-4.84-4.082-8.496-3.69-8.124.39.373 5.607-1.387 11.59-3.91 5.983-2.524 11.069-4.398 11.302-4.165.234.234-.204 4.815-.973 10.18l-1.399 9.757-5.571 3.212c-2.982 1.719-7.344 2.341-7.614 2.341-.27 0-1.224-4.452-3.645-9.292z" transform="matrix(.10324 0 0 .10324 .877 .616)"/><path style="fill:#5e46c3;stroke:#acafc0;stroke-width:0;stroke-miterlimit:4;stroke-dasharray:none;stroke-opacity:1" d="M123.498 126.256c-1.36-2.152-2.807-5.776-3.958-8.037-1.15-2.261-.08-4.184.497-3.827.577.356 2.607-.53 5.383-1.72s6.192-3.057 6.47-2.779c.858.857-2.572 14.25-4.252 17.414l-1.587 2.99z" transform="matrix(.10324 0 0 .10324 .877 .616)"/><path style="fill:#3e2b92;stroke:#acafc0;stroke-width:0;stroke-miterlimit:4;stroke-dasharray:none;stroke-opacity:1" d="M115.797 126.39c-4.676-1.728-8.651-3.29-8.834-3.473-.182-.183-.864-7.123-1.14-13.802-.277-6.68-1.126-13.497-1.474-16.723-.348-3.227-.577-12.778-.324-12.485 1.119 1.296 22.417 50.104 22.066 50.432-.216.202-5.618-2.22-10.294-3.949zm-12.228-46.898c-.942-4.39-.906-5.755.167-6.454 2.578-1.678 19.624-10.4 20.167-10.4.299 0-.01 1.578-.138 3.59-.605 9.492-2.279 5.676-9.694 11.648-4.547 3.662-7.395 5.749-8.074 6.258-.868.651-1.589-.726-2.428-4.642z" transform="matrix(.10324 0 0 .10324 .877 .616)"/><path style="fill:#2c187f;stroke:#acafc0;stroke-width:0;stroke-miterlimit:4;stroke-dasharray:none;stroke-opacity:1" d="m99.962 106.38-5.954-13.854 3.843-8.543c2.113-4.7 4.828-10.261 5.248-10.002.42.26.412 4.234.77 6.474.89 5.559 3.986 41.613 3.476 42.123-.225.226-4.109-8.578-7.383-16.198z" transform="matrix(.10324 0 0 .10324 .877 .616)"/></g></svg>
